HIERARCHY
ROOT root
{
  OFFSET 0 98.6856 0
  CHANNELS 6 Xposition Yposition Zposition Zrotation Xrotation Yrotation
  JOINT torso_1
  {
    OFFSET 0 5.37224 -1.21793
    CHANNELS 6 Xposition Yposition Zposition Zrotation Xrotation Yrotation
    JOINT torso_2
    {
      OFFSET 0 5.94127 1.13336
      CHANNELS 6 Xposition Yposition Zposition Zrotation Xrotation Yrotation
      JOINT torso_3
      {
        OFFSET -1.08535e-17 6.33601 0.121658
        CHANNELS 6 Xposition Yposition Zposition Zrotation Xrotation Yrotation
        JOINT torso_4
        {
          OFFSET -1.16841e-17 6.88189 -0.46916
          CHANNELS 6 Xposition Yposition Zposition Zrotation Xrotation Yrotation
          JOINT torso_5
          {
            OFFSET -2.08699e-17 8.0451 -1.59297
            CHANNELS 6 Xposition Yposition Zposition Zrotation Xrotation Yrotation
            JOINT torso_6
            {
              OFFSET -2.67949e-17 10.0463 -0.967353
              CHANNELS 6 Xposition Yposition Zposition Zrotation Xrotation Yrotation
              JOINT torso_7
              {
                OFFSET -3.07187e-17 11.1612 1.66806
                CHANNELS 6 Xposition Yposition Zposition Zrotation Xrotation Yrotation
                JOINT neck_1
                {
                  OFFSET -1.36661e-17 5.06312 0.756688
                  CHANNELS 6 Xposition Yposition Zposition Zrotation Xrotation Yrotation
                  JOINT neck_2
                  {
                    OFFSET -1.91632e-17 5.09976 0.446172
                    CHANNELS 6 Xposition Yposition Zposition Zrotation Xrotation Yrotation
                    JOINT head
                    {
                      OFFSET -2.12574e-17 5.10962 0.809285
                      CHANNELS 6 Xposition Yposition Zposition Zrotation Xrotation Yrotation
                      End Site
                      {
                        OFFSET 0 0.1 0
                      }
                    }
                  }
                }
                JOINT l_shoulder
                {
                  OFFSET 1.30426 -8.04703 7.96922
                  CHANNELS 6 Xposition Yposition Zposition Zrotation Xrotation Yrotation
                  JOINT l_up_arm
                  {
                    OFFSET 13.7035 3.43734 -3.45766
                    CHANNELS 6 Xposition Yposition Zposition Zrotation Xrotation Yrotation
                    JOINT l_low_arm
                    {
                      OFFSET 30.8964 0.0632652 0.14496
                      CHANNELS 6 Xposition Yposition Zposition Zrotation Xrotation Yrotation
                      JOINT l_hand
                      {
                        OFFSET 25.6348 0.0524902 0.120274
                        CHANNELS 6 Xposition Yposition Zposition Zrotation Xrotation Yrotation
                        End Site
                        {
                          OFFSET 0.1 0 0
                        }
                      }
                    }
                  }
                }
                JOINT r_shoulder
                {
                  OFFSET -1.30426 -8.04702 7.96912
                  CHANNELS 6 Xposition Yposition Zposition Zrotation Xrotation Yrotation
                  JOINT r_up_arm
                  {
                    OFFSET -13.7035 3.43734 -3.45766
                    CHANNELS 6 Xposition Yposition Zposition Zrotation Xrotation Yrotation
                    JOINT r_low_arm
                    {
                      OFFSET -30.8964 0.0632652 0.14496
                      CHANNELS 6 Xposition Yposition Zposition Zrotation Xrotation Yrotation
                      JOINT r_hand
                      {
                        OFFSET -25.6348 0.0524901 0.120274
                        CHANNELS 6 Xposition Yposition Zposition Zrotation Xrotation Yrotation
                        End Site
                        {
                          OFFSET -0.1 0 0
                        }
                      }
                    }
                  }
                }
              }
            }
          }
        }
      }
    }
  }
  JOINT l_up_leg
  {
    OFFSET 9.77065 -4.44866 2.1502
    CHANNELS 6 Xposition Yposition Zposition Zrotation Xrotation Yrotation
    JOINT l_low_leg
    {
      OFFSET -0.901622 -41.0132 -0.693059
      CHANNELS 6 Xposition Yposition Zposition Zrotation Xrotation Yrotation
      JOINT l_foot
      {
        OFFSET -2.46068 -42.7371 -6.39839
        CHANNELS 6 Xposition Yposition Zposition Zrotation Xrotation Yrotation
        JOINT l_toes
        {
          OFFSET 0.82413 -10.4558 13.2182
          CHANNELS 6 Xposition Yposition Zposition Zrotation Xrotation Yrotation
          End Site
          {
            OFFSET 0 0 0.1
          }
        }
      }
    }
  }
  JOINT r_up_leg
  {
    OFFSET -9.77065 -4.44866 2.1502
    CHANNELS 6 Xposition Yposition Zposition Zrotation Xrotation Yrotation
    JOINT r_low_leg
    {
      OFFSET 0.901622 -41.0132 -0.693059
      CHANNELS 6 Xposition Yposition Zposition Zrotation Xrotation Yrotation
      JOINT r_foot
      {
        OFFSET 2.46068 -42.7371 -6.39839
        CHANNELS 6 Xposition Yposition Zposition Zrotation Xrotation Yrotation
        JOINT r_toes
        {
          OFFSET -0.82413 -10.4558 13.2182
          CHANNELS 6 Xposition Yposition Zposition Zrotation Xrotation Yrotation
          End Site
          {
            OFFSET 0 0 0.1
          }
        }
      }
    }
  }
}
MOTION
Frames: 4
Frame Time: 0.02
0 98.6856 0 -0 0 -0 0 5.37224 -1.21793 -0 0 -0 0 5.94127 1.13336 -0 0 -0 -1.08535e-17 6.33601 0.121658 -0 0 -0 -1.16841e-17 6.88189 -0.46916 -0 0 -0 -2.08699e-17 8.0451 -1.59297 -0 0 -0 -2.67949e-17 10.0463 -0.967353 -0 0 -0 -3.07187e-17 11.1612 1.66806 -0 0 -0 -1.36661e-17 5.06312 0.756688 -0 0 -0 -1.91632e-17 5.09976 0.446172 -0 0 -0 -2.12574e-17 5.10962 0.809285 -0 0 -0 1.30426 -8.04703 7.96922 -0 0 -0 13.7035 3.43734 -3.45766 -0 0 -0 30.8964 0.0632652 0.14496 -0 0 -0 25.6348 0.0524902 0.120274 -0 0 -0 -1.30426 -8.04702 7.96912 -0 0 -0 -13.7035 3.43734 -3.45766 -0 0 -0 -30.8964 0.0632652 0.14496 -0 0 -0 -25.6348 0.0524901 0.120274 -0 0 -0 9.77065 -4.44866 2.1502 -0 0 -0 -0.901622 -41.0132 -0.693059 -0 0 -0 -2.46068 -42.7371 -6.39839 -0 0 -0 0.82413 -10.4558 13.2182 -0 0 -0 -9.77065 -4.44866 2.1502 -0 0 -0 0.901622 -41.0132 -0.693059 -0 0 -0 2.46068 -42.7371 -6.39839 -0 0 -0 -0.82413 -10.4558 13.2182 -0 0 -0 
21.9241 85.9431 301.329 1.67769 -24.4475 2.59453 0 5.37224 -1.21793 2.57666 9.446 -0.960765 0 5.94127 1.13336 2.10984 8.06884 -0.647821 -1.08535e-17 6.33601 0.121658 1.59657 6.91471 -0.532742 -1.16841e-17 6.88189 -0.46916 1.02177 4.6667 -0.409212 -2.08699e-17 8.0451 -1.59297 0.394691 2.44224 -0.522052 -2.67949e-17 10.0463 -0.967353 -0.360515 1.68625 -0.415257 -3.07187e-17 11.1612 1.66806 -0.00942083 0.109286 0.026933 -1.36661e-17 5.06312 0.756688 -0.257046 2.73247 3.69383 -1.91632e-17 5.09976 0.446172 -4.07299 -6.54869 1.54758 -2.12574e-17 5.10962 0.809285 -2.7095 -3.47308 -4.69582 1.30426 -8.04703 7.96922 10.2135 0.659598 0.0888093 13.7035 3.43734 -3.45766 -79.3256 52.1087 -9.45149 30.8964 0.0632652 0.14496 10.2864 -5.77671 -59.1387 25.6348 0.0524902 0.120274 5.38601 -47.4563 5.71627 -1.30426 -8.04702 7.96912 -1.88087 2.59907 3.21971 -13.7035 3.43734 -3.45766 69.4221 32.0587 1.57858 -30.8964 0.0632652 0.14496 -10.272 -5.75301 59.006 -25.6348 0.0524901 0.120274 2.86682 -38.4829 3.17699 9.77065 -4.44866 2.1502 -5.04672 7.32057 -9.64577 -0.901622 -41.0132 -0.693059 -106.494 75.461 89.9537 -2.46068 -42.7371 -6.39839 -2.59445 2.82563 15.7289 0.82413 -10.4558 13.2182 -3.47873e-16 -8.07563e-16 2.48481e-17 -9.77065 -4.44866 2.1502 9.03797 -4.72049 17.4764 0.901622 -41.0132 -0.693059 16.5892 47.7201 -6.48106 2.46068 -42.7371 -6.39839 -13.7673 -17.6607 -15.839 -0.82413 -10.4558 13.2182 -9.93923e-16 -5.46658e-16 -1.27222e-14 
21.5339 85.5971 306.501 0.748206 -17.4894 1.42319 0 5.37224 -1.21793 2.67975 8.03124 -0.116279 0 5.94127 1.13336 2.13019 6.91832 0.277056 -1.08535e-17 6.33601 0.121658 1.62393 5.99528 0.368705 -1.16841e-17 6.88189 -0.46916 1.05685 4.20302 0.470243 -2.08699e-17 8.0451 -1.59297 0.618307 2.39459 0.364643 -2.67949e-17 10.0463 -0.967353 0.135648 1.73653 0.337092 -3.07187e-17 11.1612 1.66806 -0.00428812 0.103858 0.0282521 -1.36661e-17 5.06312 0.756688 -0.153616 2.23213 1.10048 -1.91632e-17 5.09976 0.446172 -2.32213 -7.31019 0.458239 -2.12574e-17 5.10962 0.809285 -4.4763 -5.67312 -3.92394 1.30426 -8.04703 7.96922 9.72229 1.1008 0.406124 13.7035 3.43734 -3.45766 -81.9205 52.4837 -7.04261 30.8964 0.0632652 0.14496 9.35079 -4.44732 -51.3891 25.6348 0.0524902 0.120274 3.27094 -46.8047 -1.68895 -1.30426 -8.04702 7.96912 -1.46842 2.47426 2.8453 -13.7035 3.43734 -3.45766 67.9761 30.6209 4.89228 -30.8964 0.0632652 0.14496 -10.6601 -6.43738 62.7531 -25.6348 0.0524901 0.120274 0.214769 -35.6957 1.98405 9.77065 -4.44866 2.1502 -2.453 -6.51569 -8.31338 -0.901622 -41.0132 -0.693059 -126.212 73.0057 108.849 -2.46068 -42.7371 -6.39839 -2.27263 0.772564 16.0403 0.82413 -10.4558 13.2182 4.96962e-17 -7.95139e-16 1.2424e-17 -9.77065 -4.44866 2.1502 10.0742 -7.29936 17.8947 0.901622 -41.0132 -0.693059 16.4231 47.4345 -6.36358 2.46068 -42.7371 -6.39839 -15.2465 -22.1799 -16.6878 -0.82413 -10.4558 13.2182 -9.93923e-16 -5.46658e-16 -1.27222e-14 
21.2166 85.775 311.985 -0.317551 -7.63579 0.156307 0 5.37224 -1.21793 2.60115 4.75507 0.361174 0 5.94127 1.13336 2.09744 4.14565 0.849508 -1.08535e-17 6.33601 0.121658 1.61775 3.59343 0.939056 -1.16841e-17 6.88189 -0.46916 1.06478 2.49497 1.02803 -2.08699e-17 8.0451 -1.59297 0.73908 1.38752 0.874983 -2.67949e-17 10.0463 -0.967353 0.469927 1.02729 0.789325 -3.07187e-17 11.1612 1.66806 -0.00236194 0.115026 0.0343188 -1.36661e-17 5.06312 0.756688 -0.24746 1.54611 -1.55554 -1.91632e-17 5.09976 0.446172 -1.33973 -5.16744 -0.733978 -2.12574e-17 5.10962 0.809285 -4.01577 -5.17203 -0.404076 1.30426 -8.04703 7.96922 9.85162 2.42493 1.00511 13.7035 3.43734 -3.45766 -89.6234 49.7371 2.08419 30.8964 0.0632652 0.14496 9.45971 -4.58388 -52.2216 25.6348 0.0524902 0.120274 5.06063 -44.7564 -0.131217 -1.30426 -8.04702 7.96912 -1.17522 3.11867 2.08573 -13.7035 3.43734 -3.45766 69.6484 31.5519 2.66634 -30.8964 0.0632652 0.14496 -11.2845 -7.83608 70.0558 -25.6348 0.0524901 0.120274 0.461108 -32.3857 0.748975 9.77065 -4.44866 2.1502 -1.78229 -23.0059 -9.04633 -0.901622 -41.0132 -0.693059 -134.447 71.0347 116.63 -2.46068 -42.7371 -6.39839 -1.57695 -1.17127 15.8831 0.82413 -10.4558 13.2182 1.2424e-15 -7.45443e-16 -3.72721e-17 -9.77065 -4.44866 2.1502 11.2099 -12.971 18.5318 0.901622 -41.0132 -0.693059 16.2101 47.0635 -6.21388 2.46068 -42.7371 -6.39839 -15.9459 -23.6701 -17.0087 -0.82413 -10.4558 13.2182 -1.78906e-15 -5.09386e-16 -1.26974e-14 
